<svg aria-hidden="true" style="position: absolute; width: 0; height: 0; overflow: hidden;" version="1.1" xmlns="http://www.w3.org/2000/svg" xmlns:xlink="http://www.w3.org/1999/xlink">
<defs>
<symbol id="icon-minus" viewBox="0 0 117 32">
<path d="M98.731 28.373c2.176 0 4.053-0.597 5.653-1.781 1.579-1.173 2.368-2.592 2.368-4.224v-14.667c0-1.621-0.789-3.029-2.379-4.213-1.5-1.114-3.388-1.784-5.432-1.784-0.078 0-0.155 0.001-0.232 0.003l0.011-0h-90.613c-0.066-0.002-0.143-0.003-0.221-0.003-2.044 0-3.933 0.67-5.457 1.801l0.025-0.017c-1.568 1.173-2.357 2.592-2.357 4.213v14.667c0 1.632 0.789 3.040 2.379 4.224 1.5 1.114 3.388 1.784 5.432 1.784 0.078 0 0.155-0.001 0.232-0.003l-0.011 0h90.613z"></path>
</symbol>
<symbol id="icon-plus" viewBox="0 0 32 32">
<path d="M18.415 31.697c0.399 0 0.742-0.145 1.030-0.433 0.291-0.291 0.433-0.631 0.433-1.030v-9.859h9.644c0.396 0 0.739-0.145 1.030-0.433 0.288-0.291 0.431-0.631 0.431-1.030v-3.575c0-0.005 0-0.011 0-0.018 0-0.397-0.165-0.756-0.43-1.012l-0-0c-0.256-0.267-0.616-0.434-1.015-0.434-0.005 0-0.010 0-0.016 0h-9.643v-9.801c0-0.004 0-0.010 0-0.015 0-0.399-0.166-0.759-0.433-1.015l-0-0c-0.256-0.267-0.616-0.434-1.015-0.434-0.005 0-0.010 0-0.016 0h-4.116c-0.004-0-0.010-0-0.015-0-0.399 0-0.759 0.166-1.015 0.433l-0 0.001c-0.291 0.291-0.433 0.631-0.433 1.030v9.804h-9.693c-0.004-0-0.008-0-0.012-0-0.4 0-0.761 0.167-1.017 0.436l-0.001 0.001c-0.291 0.288-0.433 0.631-0.433 1.027v3.578c0 0.396 0.145 0.739 0.433 1.027 0.291 0.291 0.631 0.433 1.030 0.433h9.696v9.862c0 0.396 0.145 0.739 0.436 1.027 0.285 0.291 0.628 0.433 1.027 0.433h4.113z"></path>
</symbol>
</defs>
</svg>
